# xmcd
# Copyright (C) 1995-1998 Ti Kan
#
# Track frame offsets:
#       150
#       12396
#       27505
#       39289
#       51900
#       63232
#       76499
#       90263
#       102646
#       107956
#       119953
#       134971
#
# Disc length: 1975 seconds
#
# Revision: 0
# Processed by: cddbd v1.5.2PL0 Copyright (c) Steve Scherf et al.
# Submitted via: CD-Import v1.0
#
DISCID=ad07b50c
DTITLE=Christopher Christopher - Budgerigars
DYEAR=2010
DGENRE=
TTITLE0=Who's Driving The Bus
TTITLE1=Miss Li
TTITLE2=Disco Nights
TTITLE3=Clever and Wise
TTITLE4=What I Didn't Dream In December
TTITLE5=Cinderella
TTITLE6=Hidden Places
TTITLE7=Nimbin
TTITLE8=Bungalow Bill
TTITLE9=Beautiful Popsong
TTITLE10=5-1
TTITLE11=Before We Got Bored
EXTD=
EXTT0=
EXTT1=
EXTT2=
EXTT3=
EXTT4=
EXTT5=
EXTT6=
EXTT7=
EXTT8=
EXTT9=
EXTT10=
EXTT11=
PLAYORDER=
